<svg width="20" height="18" viewBox="0 0 20 18" fill="none" xmlns="http://www.w3.org/2000/svg">
<path d="M10 18C9.35502 17.428 8.62602 16.833 7.85502 16.2H7.84502C5.13002 13.98 2.05302 11.468 0.694023 8.458C0.24754 7.49972 0.0109268 6.45712 1.1406e-05 5.4C-0.00297039 3.94948 0.578794 2.55898 1.61383 1.54276C2.64887 0.526544 4.04981 -0.0296104 5.50002 -4.87245e-06C6.68065 0.00185993 7.83586 0.343076 8.82802 0.982995C9.26399 1.26596 9.65844 1.60825 10 2C10.3435 1.60979 10.7381 1.2677 11.173 0.982995C12.1648 0.34295 13.3197 0.00171368 14.5 -4.87245e-06C15.9502 -0.0296104 17.3512 0.526544 18.3862 1.54276C19.4213 2.55898 20.003 3.94948 20 5.4C19.9898 6.45881 19.7532 7.50319 19.306 8.463C17.947 11.473 14.871 13.984 12.156 16.2L12.146 16.208C11.374 16.837 10.646 17.432 10.001 18.008L10 18ZM5.50002 2C4.56853 1.98834 3.67009 2.34484 3.00002 2.992C2.35441 3.62616 1.99358 4.49504 1.99994 5.4C2.01135 6.1705 2.18585 6.92985 2.51202 7.628C3.15353 8.9267 4.01913 10.102 5.06902 11.1C6.06002 12.1 7.20002 13.068 8.18602 13.882C8.45902 14.107 8.73702 14.334 9.01502 14.561L9.19002 14.704C9.45702 14.922 9.73302 15.148 10 15.37L10.013 15.358L10.019 15.353H10.025L10.034 15.346H10.039H10.044L10.062 15.331L10.103 15.298L10.11 15.292L10.121 15.284H10.127L10.136 15.276L10.8 14.731L10.974 14.588C11.255 14.359 11.533 14.132 11.806 13.907C12.792 13.093 13.933 12.126 14.924 11.121C15.9741 10.1236 16.8397 8.94851 17.481 7.65C17.8131 6.9458 17.9901 6.1785 18.0001 5.4C18.0042 4.49783 17.6435 3.63229 17 3C16.3312 2.34992 15.4326 1.99048 14.5 2C13.3619 1.99032 12.274 2.46736 11.51 3.311L10 5.051L8.49002 3.311C7.72609 2.46736 6.6381 1.99032 5.50002 2Z" fill="#C4C4C4"/>
</svg>
