<svg width="25" height="24" viewBox="0 0 25 24" fill="none" xmlns="http://www.w3.org/2000/svg">
<path d="M12.6895 21C12.0445 20.428 11.3155 19.833 10.5445 19.2H10.5345C7.81948 16.98 4.74248 14.468 3.38348 11.458C2.93699 10.4997 2.70038 9.45712 2.68946 8.4C2.68648 6.94948 3.26825 5.55898 4.30328 4.54276C5.33832 3.52654 6.73926 2.97039 8.18948 3C9.3701 3.00186 10.5253 3.34308 11.5175 3.983C11.9534 4.26596 12.3479 4.60825 12.6895 5C13.033 4.60979 13.4275 4.2677 13.8625 3.983C14.8542 3.34295 16.0091 3.00171 17.1895 3C18.6397 2.97039 20.0406 3.52654 21.0757 4.54276C22.1107 5.55898 22.6925 6.94948 22.6895 8.4C22.6793 9.45881 22.4427 10.5032 21.9955 11.463C20.6365 14.473 17.5605 16.984 14.8455 19.2L14.8355 19.208C14.0635 19.837 13.3355 20.432 12.6905 21.008L12.6895 21ZM8.18948 5C7.25799 4.98834 6.35955 5.34484 5.68948 5.992C5.04386 6.62616 4.68303 7.49504 4.68939 8.4C4.7008 9.1705 4.8753 9.92985 5.20148 10.628C5.84299 11.9267 6.70859 13.102 7.75848 14.1C8.74948 15.1 9.88948 16.068 10.8755 16.882C11.1485 17.107 11.4265 17.334 11.7045 17.561L11.8795 17.704C12.1465 17.922 12.4225 18.148 12.6895 18.37L12.7025 18.358L12.7085 18.353H12.7145L12.7235 18.346H12.7285H12.7335L12.7515 18.331L12.7925 18.298L12.7995 18.292L12.8105 18.284H12.8165L12.8255 18.276L13.4895 17.731L13.6635 17.588C13.9445 17.359 14.2225 17.132 14.4955 16.907C15.4815 16.093 16.6225 15.126 17.6135 14.121C18.6635 13.1236 19.5291 11.9485 20.1705 10.65C20.5026 9.9458 20.6795 9.1785 20.6895 8.4C20.6936 7.49783 20.333 6.63229 19.6895 6C19.0207 5.34992 18.1221 4.99048 17.1895 5C16.0514 4.99032 14.9634 5.46736 14.1995 6.311L12.6895 8.051L11.1795 6.311C10.4155 5.46736 9.32755 4.99032 8.18948 5Z" fill="#C4C4C4"/>
</svg>
